# xmcd
#
# Track frame offsets:
#	150
#	13340
#	30317
#	50344
#	67137
#	80789
#	95715
#	107443
#	124489
#	139031
#	157254
#
# Disc length: 2272 seconds
#
# Revision: 1
# Processed by: cddbd v1.5.2PL0 Copyright (c) Steve Scherf et al.
# Submitted via: audiograbber 1.83.01
#
DISCID=9d08de0b
DTITLE=Diana Jones - Better Times Will Come
DYEAR=2009
DGENRE=Country
TTITLE0=Better Times Will Come (with Nanci Griffith)
TTITLE1=All God's Children (with Betty Elders)
TTITLE2=Henry Russell's Last Words
TTITLE3=If I Had A Gun (with Mary Gauthier)
TTITLE4=Soldier Girl (with Nanci Griffith)
TTITLE5=Cracked And Broken
TTITLE6=Ballad Of The Poor Child
TTITLE7=Appalachia
TTITLE8=Evangelina
TTITLE9=Something Crossed Over
TTITLE10=The Day I Die
EXTD=
EXTT0=
EXTT1=
EXTT2=
EXTT3=
EXTT4=
EXTT5=
EXTT6=
EXTT7=
EXTT8=
EXTT9=
EXTT10=
PLAYORDER=
